<svg t="1687764011329" class="icon" viewBox="0 0 1126 1024" version="1.1" xmlns="http://www.w3.org/2000/svg" p-id="880" width="200" height="200"><path d="M72.702546 3.604408C222.203556 61.459251 443.02474 153.617408 486.390272 435.416572c7.833443 36.453671 20.377192 70.50099 36.863263 102.397952H716.785664v-153.596928h51.198976v153.596928h102.397952v-153.596928h51.198976v153.596928h102.397952v-102.397952h51.198976v102.397952h51.198976v51.198976h-51.198976v51.198976h51.198976v51.198976h-51.198976v242.171156c20.581988 16.793264 18.943621 42.648747 0 56.114078v8.908622H51.198976a51.198976 51.198976 0 0 1-51.198976-51.198976V52.909022C0 15.99456 38.245635-9.758525 72.702546 3.604408zM1023.97952 640.212476v-51.198976h-102.397952v51.198976h102.397952z m-102.397952 51.198976h102.397952v218.363632a2597.938441 2597.938441 0 0 1-102.397952-45.311093v-173.052539z m-51.198976-51.198976v-51.198976h-102.397952v51.198976h102.397952z m-102.397952 51.198976h102.397952v147.96504a1356.312074 1356.312074 0 0 1-102.397952-57.598848v-90.366192z m-51.198976-51.198976v-51.198976h-162.710346c12.287754 17.817244 25.906682 34.815304 40.447192 51.198976H716.785664z m-70.859383 51.198976H716.785664v56.267674c-24.729105-17.612448-48.536629-36.351273-70.859383-56.318873z" fill="#2c2c2c" p-id="881"></path></svg>